<?xml version="1.0" encoding="utf-8"?>
<!-- Generator: Adobe Illustrator 16.0.0, SVG Export Plug-In . SVG Version: 6.00 Build 0)  -->
<!DOCTYPE svg PUBLIC "-//W3C//DTD SVG 1.1//EN" "http://www.w3.org/Graphics/SVG/1.1/DTD/svg11.dtd">
<svg version="1.1" id="Layer_1" xmlns="http://www.w3.org/2000/svg" xmlns:xlink="http://www.w3.org/1999/xlink" x="0px" y="0px"
	 width="16px" height="16px" viewBox="0 0 16 16" enable-background="new 0 0 16 16" xml:space="preserve">
<g>
	<circle fill="#898989" cx="7.906" cy="8.028" r="7.741"/>
	<g>
		<g>
			<path fill="#FFFFFF" d="M11.735,4.33c-0.313-0.312-0.727-0.483-1.167-0.483c-0.441,0-0.855,0.172-1.167,0.483L4.788,8.943
				C4.749,8.982,4.72,9.031,4.705,9.085L3.98,11.688c-0.031,0.113,0,0.233,0.083,0.315c0.062,0.061,0.144,0.094,0.228,0.094
				c0.029,0,0.059-0.004,0.088-0.012l2.604-0.74c0.109-0.031,0.195-0.118,0.224-0.229s-0.003-0.229-0.084-0.309L5.481,9.161
				l3.824-3.824l1.422,1.422L7.8,9.679c-0.126,0.126-0.126,0.33,0,0.456c0.125,0.126,0.329,0.126,0.455,0l3.48-3.47
				c0.312-0.312,0.483-0.726,0.483-1.167C12.219,5.057,12.047,4.642,11.735,4.33z M6.279,10.875l-1.524,0.433l0.427-1.533
				L6.279,10.875z M11.28,6.208l-0.097,0.096L9.761,4.881l0.096-0.096c0.19-0.19,0.442-0.294,0.712-0.294
				c0.269,0,0.521,0.104,0.711,0.295c0.19,0.19,0.295,0.442,0.295,0.711C11.574,5.766,11.47,6.019,11.28,6.208z"/>
		</g>
	</g>
</g>
</svg>
